<?xml version="1.0"?>
<svg version="1.1" xmlns="http://www.w3.org/2000/svg" width="150" height="150" style="border: dashed 2px #aaa"><path fill="#" d="M17.978515625,94.287109375q0-8.3984375,0.4638671875-16.6015625t1.1474609375-16.6015625q0.1953125-2.197265625,0.244140625-4.248046875t0.4638671875-3.5888671875t1.46484375-2.44140625t3.2470703125-0.9033203125q1.416015625,0,2.9541015625,0.48828125t1.5380859375,2.294921875q0,6.787109375-0.5615234375,13.3544921875t-0.7568359375,13.0615234375q5.322265625-6.005859375,11.376953125-11.2060546875t12.841796875-10.2783203125q0.9765625-0.68359375,2.490234375-0.732421875q0.48828125,0,0.8544921875,0.048828125t0.7568359375,0.146484375q0.48828125,0.1953125,1.0009765625,0.4638671875t0.5126953125,0.7568359375q0,0.390625-0.439453125,0.68359375q-5.078125,4.1015625-10.0341796875,8.349609375t-9.4482421875,9.08203125q0.5859375,1.123046875,1.0009765625,2.099609375t0.9033203125,2.099609375q4.1015625,9.716796875,7.0068359375,19.8974609375t6.1767578125,20.1904296875q0.29296875,1.123046875,0.8544921875,2.3193359375t1.0498046875,2.392578125t0.8544921875,2.24609375t0.3662109375,1.7333984375q0,0.87890625-0.5615234375,1.3916015625t-1.2939453125,0.8056640625t-1.5869140625,0.390625t-1.5869140625,0.09765625q-1.708984375,0-3.0517578125-0.48828125t-2.1240234375-2.197265625q-3.61328125-11.5234375-6.9580078125-23.046875t-6.7626953125-23.2421875q-1.123046875,1.123046875-2.24609375,2.8076171875t-2.05078125,3.1005859375q0,7.32421875,0.341796875,14.55078125t1.171875,14.55078125q0.1953125,2.099609375,0.6591796875,4.19921875t0.4638671875,4.296875q0,1.611328125-1.66015625,2.24609375t-3.662109375,0.634765625q-2.197265625,0-3.2958984375-0.439453125t-1.5625-1.1474609375t-0.5615234375-1.5625t-0.29296875-1.6357421875q-1.123046875-7.71484375-1.416015625-15.2587890625t-0.29296875-15.1611328125z"/><path fill="#" d=""/></svg>
